<svg id="e9e0a141-ea81-451f-ba37-50586bf6a7c7" data-name="Layer 1" xmlns="http://www.w3.org/2000/svg" width="865.76" height="682.89" viewBox="0 0 865.76 682.89"><path d="M664.64,505.73l7.47,29.5a3.51,3.51,0,0,1-3.4,4.38h-7.38a9.51,9.51,0,0,1-6.77-2.83l-25.51-25.91Z" fill="#939598"/><path d="M198.61,507.09l-7.47,29.5a3.51,3.51,0,0,0,3.4,4.38h7.38a9.53,9.53,0,0,0,6.77-2.83l25.51-25.91Z" fill="#939598"/><path d="M164.73,508.8l-7.47,29.51a3.5,3.5,0,0,0,3.4,4.37H168a9.53,9.53,0,0,0,6.77-2.83L200.32,514Z" fill="#bcbec0"/><path d="M698.52,507.44,706,537a3.51,3.51,0,0,1-3.4,4.37h-7.38a9.51,9.51,0,0,1-6.77-2.83l-26.81-27.17Z" fill="#bcbec0"/><path d="M110.38,259.23s-30-61.87,11.83-70.05c0,0,13.65-6.37,107.35-6.37l142.33,3.66s144.5,8.5,208.08-.68c0,0,141.43-10.54,170.67-.34,0,0,25.84,6.12,12.92,73.44,0,0,49-11.56,59.16,40.8,0,0,8.15,34.68-27.88,112.19,0,0-40.8,93.16-67.32,98.6,0,0-461,12.24-560,5.1l-24.79-.84a11.31,11.31,0,0,1-8.77-4.62C115.36,484.76,25,357,45.17,290.17,45.17,290.17,57.29,243.58,110.38,259.23Z" fill="#d1d3d4"/><rect x="205.3" y="417.07" width="206.03" height="1.19" fill="#bcbec0"/><rect x="524.55" y="419.11" width="128.51" height="1.19" fill="#bcbec0"/><path d="M488.45,206.08a12.32,12.32,0,0,1,4.84,0c4.83.92,17.29,3,24.69,2,0,0,2.74,0,2.9-1.93,0,0,1.28-3.37-5.63-1.77A50.66,50.66,0,0,1,499,202.6s-23.84-6.88-31.14,16.21l-.06.19s-6.76,20.74-6.76,35.22c0,0-1.93,22-1.44,28.78l.16,47,4,1.93-.32-62.07S465.56,223,476,213.53C476,213.53,479.35,207.93,488.45,206.08Z" fill="#bcbec0"/><path d="M380.85,210.6s-5.88-.45-4.3,2.72c0,0,0,1.8,12.43-.46,0,0,30.72-3.16,39.07,20.11,0,0,7.23,21.23,7.68,53.3l1.58,42.92h4.29L436,250.81S436.18,201.57,380.85,210.6Z" fill="#bcbec0"/><path d="M758.09,261.45a58.81,58.81,0,0,0-14.21,9.21l-3.22,2.78c-1,.95-2,2-3,3s-2,2-3,3l-2.79,3.21-2.79,3.2-2.56,3.38c-1.68,2.28-3.51,4.44-5,6.86l-4.65,7.11c-1.46,2.42-2.8,4.92-4.2,7.37-11,19.8-18.92,41.2-24.94,63l-1.19,4.08-.59,2-.5,2.06-2,8.27-4,16.54c-2.65,11-5,22.13-7.13,33.25s-4,22.32-5.64,33.54-3,22.49-3.88,33.8c.72-11.32,1.86-22.62,3.3-33.88s3.28-22.46,5.33-33.63,4.37-22.28,7-33.33l3.93-16.56,1.94-8.29.5-2.07.59-2,1.18-4.09c6.13-21.85,14-43.35,25.28-63.14,1.44-2.46,2.81-4.95,4.3-7.37l4.73-7.09c1.51-2.42,3.38-4.58,5.08-6.85l2.61-3.37,2.84-3.18,2.85-3.17c1-1,2-2,3-3s2-2,3.09-2.94l3.27-2.73A59.15,59.15,0,0,1,758.09,261.45Z" fill="#bcbec0"/><path d="M689.78,359.78a64,64,0,0,0-19.63-6.37s-22.95-4.85-26.52-23.72l-15.3-64.77-7.65-30.34s-12.5-26.77,25-30.34l34.59-2.47A141.94,141.94,0,0,0,711.2,194s17.41-5.48,27.47-3.47a7.52,7.52,0,0,1,5.85,5.69c1.64,7.23,3.91,25.46-4.31,55.34a54.49,54.49,0,0,1-2.49,7.15c-2.88,6.8-9.47,22.7-11.05,29.55,0,0,4.93-6.71,8-9.26l1.27-7.4s21.93-41.3,11-77.51c0,0,.51-12.75-27.8-5.36,0,0-25.75,11.22-61.19,10.71l-65.7-.68-24.82,8.84,27.88,88.74s-8.68,52.08-7.57,52,74.54,8.81,74.54,8.81Z" fill="#bcbec0"/><path d="M728.2,195.65A132,132,0,0,0,720.82,210c-1.09,2.46-2.19,4.91-3.15,7.42l-1.49,3.75L714.82,225a244.7,244.7,0,0,0-8.71,31c-.53,2.63-1,5.28-1.5,7.92-.24,1.32-.52,2.63-.73,4l-.56,4c-.36,2.66-.76,5.32-1.09,8l-.76,8-.39,4c-.09,1.34-.14,2.68-.21,4l-.38,8.06c-.21,5.38-.07,10.76-.17,16.15l-.26-8.08-.12-4c-.06-1.35-.09-2.69,0-4l.22-8.08c0-1.35.06-2.7.13-4.05l.31-4,.65-8.07c.31-2.68.7-5.35,1-8l.54-4c.2-1.33.47-2.65.7-4,.49-2.66.94-5.32,1.46-8a228.09,228.09,0,0,1,9-31.07C717.8,214.56,722.26,204.66,728.2,195.65Z" fill="#bcbec0"/><path d="M373.6,346.58s29.49,4.49,44.23,4.81l-1.6,14.42s-16-9-47.12-9.61Z" fill="#bcbec0"/><path d="M261.48,320.77s20.38-6.56,35.95-7.7l-25-8.84S262.57,310.2,261.48,320.77Z" fill="#f9b499"/><path d="M366.76,269.67s.51-3.59-10.53-.51l1.4,5.11S363.17,272.75,366.76,269.67Z" fill="#0071f2"/><path d="M366.76,269.67s.51-3.59-10.53-.51l1.4,5.11S363.17,272.75,366.76,269.67Z" opacity="0.2"/><path d="M321.9,261.64l9.37,1.68L342,304.12s3,23.59,9.14,29.79l-25.66-1.77Z" fill="#bcbec0"/><path d="M333.64,269.16l.77,9s15.44-.52,23.15-4.12l-3.89-14.88Z" fill="#f9b499"/><path d="M110.38,259.23a20.58,20.58,0,0,1,1.74,1.11c.57.4,1.16.75,1.7,1.19l3.25,2.55,3.07,2.78,1.54,1.39c.49.48,1,1,1.44,1.48l2.87,3,1.44,1.5,1.33,1.58,5.31,6.36,4.84,6.72c.79,1.13,1.64,2.22,2.39,3.39l2.19,3.51,4.38,7c1.43,2.36,2.64,4.84,4,7.26l3.91,7.3c1.25,2.46,2.32,5,3.48,7.51,2.25,5.05,4.72,10,6.57,15.21s4,10.29,5.92,15.47l5.08,15.76,1.26,3.94c.43,1.31.84,2.63,1.16,4l2.1,8,4.18,16,3.39,16.2,1.69,8.11.84,4.05c.28,1.35.45,2.72.68,4.08l2.58,16.35,1.28,8.17.65,4.09c.21,1.36.33,2.73.49,4.1l3.6,32.89-4.18-32.81c-.18-1.36-.3-2.74-.54-4.1l-.68-4.07-1.37-8.16-2.73-16.3c-.25-1.35-.42-2.72-.72-4.06l-.87-4-1.72-8.09-3.44-16.16-4.23-16-2.12-8c-.32-1.34-.74-2.65-1.17-4l-1.27-3.93-5-15.74c-1.88-5.17-3.91-10.29-5.85-15.44s-4.28-10.14-6.5-15.17c-1.15-2.5-2.22-5-3.44-7.51L151,310.5c-1.3-2.42-2.49-4.91-3.89-7.28l-4.3-7.05-2.14-3.52c-.73-1.17-1.57-2.26-2.35-3.4l-4.75-6.74-5.18-6.44-1.3-1.6-1.4-1.51-2.81-3c-.47-.5-.93-1-1.42-1.5L120,267l-3-2.83-3.21-2.6c-.52-.45-1.11-.81-1.67-1.22A20.49,20.49,0,0,0,110.38,259.23Z" fill="#bcbec0"/><path d="M145.63,298.84c-8.81-20.61-16.6-41.76-21.64-63.68a135.57,135.57,0,0,1-2.77-16.64c-.5-5.6-.66-11.33.63-16.92a21.53,21.53,0,0,1,1.4-4.07,13.61,13.61,0,0,1,2.38-3.64,12,12,0,0,1,7.7-3.84,14.41,14.41,0,0,1,2.17-.11h1.08l1.09.11c.36,0,.71.06,1.08.13l1,.22,2.06.45,8.21,1.84q8.2,1.91,16.37,3.91l8.16,2,4.07,1c1.33.35,2.71.52,4.09.77,11.05,1.78,22.22,2.79,33.4,3.54s22.39.95,33.6.74,22.41-.78,33.58-1.78c-11.15,1.19-22.35,2-33.57,2.36s-22.45.18-33.66-.4c-5.61-.33-11.21-.7-16.8-1.28s-11.17-1.23-16.72-2.11c-1.38-.24-2.79-.41-4.17-.78l-4.09-1-8.16-2q-8.17-2-16.37-3.86L141.6,192l-2.06-.45-1-.22c-.31-.06-.66-.08-1-.12l-1-.11h-1a15.17,15.17,0,0,0-2,.09,10.91,10.91,0,0,0-7,3.46,16.32,16.32,0,0,0-3.55,7.23c-1.27,5.37-1.14,11-.65,16.56A145.33,145.33,0,0,0,124.88,235,308.32,308.32,0,0,0,134,267.3Q139.23,283.26,145.63,298.84Z" fill="#bcbec0"/><path d="M141.55,199.39a66.44,66.44,0,0,1,7.79,11.43c1.17,2,2.13,4.1,3.21,6.15s1.93,4.2,2.85,6.32A179.19,179.19,0,0,1,164,249.63c.52,2.25,1.11,4.49,1.56,6.75l1.32,6.8c.21,1.14.46,2.26.64,3.41L168,270l1,6.85c.53,4.59,1,9.18,1.41,13.77l.71,13.82-1.29-13.77c-.58-4.56-1.1-9.14-1.74-13.69-1.46-9.09-2.94-18.18-5.29-27.07a189.93,189.93,0,0,0-8.26-26.29c-.86-2.12-1.78-4.23-2.68-6.35s-1.93-4.17-3-6.18A71.77,71.77,0,0,0,141.55,199.39Z" fill="#bcbec0"/><path d="M289.9,190.77s2.13,16.46-10.7,31.72c0,0,11.29,15.17,40.28,14.2,0,0-9.92-12.06-8-23.35l-15.95-29Z" fill="#f9b499"/><path d="M311.38,218a25.07,25.07,0,0,0,1.1,5.69s-14.11-2.72-14.11-16.91C298.37,206.79,302.2,217.24,311.38,218Z" fill="#f7a48b"/><path d="M279.2,222.49s-12.84,11.24-22.08,16.37c0,0-8.47-.51-18.74,34.15,0,0-20,46-7.19,54.69L242,332.33a38.89,38.89,0,0,1,19.51-11.56s3.6-13.09,11.82-16.18l24.13,8.48s19.52-2.06,38.26,7.7c0,0-8.44-27.81-10.92-55.35a1.29,1.29,0,0,1,1.28-1.4h0a1.28,1.28,0,0,1,1.27,1.16c.58,6.24,3.79,35.63,12.74,38.39,0,0,13.86,6.55,22.54-8.5a31.06,31.06,0,0,0,4-15l.17-10.37s-9.5,7.19-32.35,8.48l-.52-11.3L322.6,238.09l-3.12-1.4S294.1,238.72,279.2,222.49Z" fill="#0071f2"/><path d="M311.8,228.43l16.74,38.45a4.07,4.07,0,0,0,3.67,2.45c4.54.09,13.84-.57,20.35-6.71a3.81,3.81,0,0,0,1.15-3.23c-.74-6-3.34-25.87-7.27-41.59a3.55,3.55,0,0,0-3.7-2.69,74.46,74.46,0,0,0-29.39,8.77A3.56,3.56,0,0,0,311.8,228.43Z" fill="#e6e7e8"/><path d="M346.53,331.09s32.82,4.82,34.4,21.35a7.06,7.06,0,0,1-4.57,7.27c-5.21,2-16.71,4.3-41.79,4.13a65.14,65.14,0,0,0-9.87.68l-28.31,4.17,27.93-25.43Z" fill="#2f2e41"/><path d="M346.53,331.09s32.82,4.82,34.4,21.35a7.06,7.06,0,0,1-4.57,7.27c-5.21,2-16.71,4.3-41.79,4.13a65.14,65.14,0,0,0-9.87.68l-28.31,4.17,27.93-25.43Z" opacity="0.2"/><path d="M469.76,418.7s4.13,31.31-7.94,42.63a7.78,7.78,0,0,1-4.76,2c-8.72.69-38.81,3.63-33.12,11.06a14.14,14.14,0,0,0,6.62,2.29s2.81.26,2.55,4.34c0,0,.2,2.95,4.23,3.15a6.51,6.51,0,0,0,2.4-.32c.74-.25,2-.36,2,2,0,0-1.42,2.62,5.13,2.57a.78.78,0,0,1,.78.58c.18.86,1.08,2.27,5.08,1.43a1.33,1.33,0,0,1,1.4.6c.93,1.47,3.77,3.77,11.33-2.63a16.69,16.69,0,0,1,13.29-3.72,12.45,12.45,0,0,0,7.62-.9c2.93-1.43,5.86-4.43,5.86-10.68,0,0,.26-21.67,5.61-34.93l6.38-19.13S496.71,420.36,469.76,418.7Z" fill="#f9b499"/><path d="M461.71,495.58c-1.09,3.46-4.68,2.91-6.58,2.33a2.17,2.17,0,0,0-2.1.53,6.19,6.19,0,0,1-7,.88,2.16,2.16,0,0,0-2.1.19c-4.25,2.87-6.72,1.13-7.68.1a.48.48,0,0,0-.78.11,3,3,0,0,1-4,1.32l-27-20.64c-9.18-6.89,2.8-21.69,2.8-21.69l-.63-49.95a200.5,200.5,0,0,0,38,8.81c-4.2,7.54-11.09,33.94-13.41,43.09a5.43,5.43,0,0,0,2,5.65c8.64,6.64,33.46,21.23,33.46,21.23,8.26,8.7-2.23,7.93-4.44,7.68A.49.49,0,0,0,461.71,495.58Z" fill="#f9b499"/><path d="M607.47,337.67a26.29,26.29,0,0,1-19.78,10.67,29.63,29.63,0,0,0-21.34-18.52l19.77-24.17-4.39-12.88s-16.32,17.27-17,46.15l-1.57,7.22s-17.46-3.14-26.78,1.73L490.06,333l-5.56-6.89,6.82-17s-20.09,15.07-31.71.94c0,0-13.19-12.87,3.14-31.08l17.59-20.41s36.41-24.8,64.66-25.11l-.1.05c-.89.54-8.09,5.15-8.37,17.22,0,0-1.26,16.94,16.32,7.22l29.51-21.35,14.76.62s12.55-3.76,16.31,23.55C613.43,260.75,627.25,322.92,607.47,337.67Z" fill="#0071f2"/><path d="M566.35,329.82S556,343.94,556,345.51l29.82,3.77,1.89-.94S583.93,333.9,566.35,329.82Z" fill="#f9b499"/><path d="M564.17,349.37a.24.24,0,0,0-.4-.23c-1.23,1.34-3.43,3.78-5.47,3.17a1.72,1.72,0,0,1-1.15-1.82,29.51,29.51,0,0,1,2-7.17s5.65-13.5,10.36-4.71c0,0,4.08-2.2,6.28,2.51,0,0,7.23-4.05,3.92,10.61a2.65,2.65,0,0,1-3.52,2c-.73-.29-1.27-.95-1.13-2.31a.09.09,0,0,0-.17-.05c-1,1.9-4.72,8.16-8.21,3.87C566.66,355.25,561,360.88,564.17,349.37Z" fill="#f9b499"/><path d="M561,339.86a12.71,12.71,0,0,1,1.56-2.52,6.56,6.56,0,0,1,2.36-1.95,3.2,3.2,0,0,1,1.66-.26,3.06,3.06,0,0,1,1.55.7,6,6,0,0,1,1.11,1.19c.28.43.51.9.76,1.35l-.78-.28a6.39,6.39,0,0,1,2.06-.56,4.68,4.68,0,0,1,2.15.29,4.09,4.09,0,0,1,1.77,1.29,6.6,6.6,0,0,1,1,1.82l-.71-.26a5,5,0,0,1,2.18-.48,2.79,2.79,0,0,1,2.06.94,4,4,0,0,1,.83,2c0,.35.08.69.09,1l0,1a16,16,0,0,0-.4-2,3.82,3.82,0,0,0-1-1.6,2.13,2.13,0,0,0-1.58-.54,4.42,4.42,0,0,0-1.71.52l-.47.25-.25-.51a5.43,5.43,0,0,0-.92-1.48,3.42,3.42,0,0,0-1.34-.93,3.72,3.72,0,0,0-1.63-.19,5,5,0,0,0-1.65.42l-.52.22-.27-.5-.65-1.21a4.5,4.5,0,0,0-.83-1,2.1,2.1,0,0,0-2.24-.47,6.67,6.67,0,0,0-2.3,1.5A17.48,17.48,0,0,0,561,339.86Z" fill="#f7a48b"/><line x1="491.32" y1="309.1" x2="513.33" y2="261.61" fill="none" stroke="#ed1c24" stroke-miterlimit="10" stroke-width="0.25"/><path d="M582.36,236.58l-29.51,21.35c-17.58,9.72-16.32-7.22-16.32-7.22.28-12.07,7.48-16.68,8.37-17.22l.1-.05a16.11,16.11,0,0,0,6.9-2.4A5,5,0,0,0,554,227V218.6l22.61-8.84Z" fill="#f9b499"/><path d="M554,218.6v8.34a4.79,4.79,0,0,1-2.07,4.11s16.18.81,22.64-17.89Z" fill="#f7a48b"/><path d="M490.84,261.52l-21.49-2.32s19.52-33.49,27.93-44.41L517,215Z" fill="#0071f2"/><path d="M490.84,261.52l-21.49-2.32s19.52-33.49,27.93-44.41L517,215Z" opacity="0.3"/><polygon points="500.68 276.74 490.83 261.52 516.98 214.97 522.17 234.31 500.68 276.74" fill="#0071f2"/><polygon points="522.18 234.31 500.69 276.75 490.83 261.53 516.98 214.96 520.27 227.22 520.66 228.67 522.18 234.31" fill="#fff" opacity="0.3"/><polygon points="469.35 259.2 480.27 273.88 500.68 276.74 490.83 261.52 469.35 259.2" fill="#0071f2"/><polygon points="469.35 259.2 480.27 273.88 500.68 276.74 490.83 261.52 469.35 259.2" opacity="0.5"/><path d="M495.7,273.62l-3.43-2.11c-2-1.25-4.09-2.42-6.15-3.6a39.21,39.21,0,0,0,4.12-5.72,39.17,39.17,0,0,0-5.17,5.13c-2.27-1.26-4.55-2.51-6.86-3.68s-4.79-2.44-7.25-3.54c2.22,1.52,4.51,2.94,6.8,4.33s4.35,2.57,6.54,3.82a35.68,35.68,0,0,0-3.54,5,37,37,0,0,0,4.57-4.45c2.15,1.19,4.3,2.37,6.49,3.49l3.6,1.82c1.22.57,2.42,1.17,3.65,1.71C498,275.07,496.83,274.36,495.7,273.62Z" opacity="0.5"/><path d="M517.69,218.55c-1,2.56-2.05,5.06-3.14,7.55s-2.28,5-3.49,7.39l-.09-.65c1.19,1.31,2.35,2.65,3.51,4l-.53-.13,4.09-1.26c.68-.21,1.37-.39,2.06-.58s1.37-.38,2.07-.55c-.65.31-1.3.6-2,.88s-1.3.58-2,.85l-4,1.6-.29.12-.25-.25c-1.22-1.28-2.45-2.57-3.64-3.88l-.27-.29L510,233q1.77-3.69,3.68-7.3C515,223.28,516.26,220.88,517.69,218.55Z" fill="#fff" opacity="0.3"/><path d="M472.79,253.2s-7-11.35.19-10.86c0,0-4-8.16,5.68-8.9,0,0-2.47-4.2,4.45-3.7,0,0-1.86-7.22,3.66-7.53a3.06,3.06,0,0,1,3,2c.52,1.43.4,3.59-2.75,6,0,0,6.92-1.24,4.95,4.2,0,0,3.21,6.92-7.17,8.4,0,0,5.26,6.83-8.82,5.35Z" fill="#f9b499"/><path d="M254,240.23a14.49,14.49,0,0,1,3.74,1.22,16.14,16.14,0,0,1,1.72,1l.84.54.79.61a20.81,20.81,0,0,1,5.14,6.06,26.26,26.26,0,0,1,2.7,7.44c.26,1.29.37,2.61.55,3.9,0,1.32.06,2.63,0,3.93-.24-1.29-.39-2.58-.6-3.85s-.51-2.53-.87-3.76a36,36,0,0,0-1.23-3.63c-.26-.59-.45-1.2-.74-1.76l-.88-1.69a24.31,24.31,0,0,0-4.69-5.94A20.21,20.21,0,0,0,254,240.23Z" fill="#231f20" opacity="0.3"/><path d="M268.44,278.75a101.05,101.05,0,0,1-1.11,21.89,101.14,101.14,0,0,1,1.11-21.89Z" fill="#231f20" opacity="0.3"/><path d="M246.82,291.5a80.64,80.64,0,0,1,14,5.08,67.9,67.9,0,0,1,6.57,3.52,35.31,35.31,0,0,1,5.95,4.49c-2.08-1.36-4.24-2.52-6.41-3.68s-4.39-2.2-6.61-3.25-4.47-2.06-6.71-3.08Z" fill="#231f20" opacity="0.3"/><path d="M172.68,359.14s10.46,12.26,22.36,2.17c0,0,15.87-10.1,25.6.72l-39.3,26.32S178.09,376.45,172.68,359.14Z" fill="#bcbec0"/><ellipse cx="316.91" cy="187.06" rx="31.54" ry="20.59" transform="translate(66.97 457.15) rotate(-77.77)" fill="#f9b499"/><path d="M240.49,266.33S202.75,230,252.35,207.11c0,0-16.31-14,7-22.88A50,50,0,0,0,271.86,178,17,17,0,0,0,279,163.53c-.16-3.61,1.35-10,13-12.33a7.93,7.93,0,0,0,5.27-3.9c2.43-4.23,9.12-10.38,26.76-5,0,0,25.06,10.28,20.3,18.55,0,0,10.83,2.48,3.37,25a25,25,0,0,1-3.34,6.62c-1.15,1.62-2.83,4-5.16,7.23a4.76,4.76,0,0,0-.88,2.75v13.1s-15.08,2.36-25.68,8.72a18.15,18.15,0,0,1-1.29-6.3s11.09,2.16,20.06-12.5c0,0,9.71-13.91,5.44-34a6,6,0,0,0-2.35-3.66c-1.53-1.07-3.8-1.55-6.32,1.63,0,0-10.54,9.18-21.08,2.55,0,0-6.63-1.7-9,11.22l-8.22,7.53s4.3,15.29-10.7,31.72c0,0-13.36,11.6-22.08,16.37,0,0-4.14-.2-9.75,10.64A121.52,121.52,0,0,0,240.49,266.33Z" fill="#2f2e41"/><ellipse cx="292.63" cy="186.39" rx="6.03" ry="7.49" fill="#f9b499"/><circle cx="332.2" cy="251.16" r="1.1" fill="#0071f2" opacity="0.2"/><circle cx="342.15" cy="253.71" r="1.1" fill="#0071f2" opacity="0.2"/><circle cx="344.36" cy="259.48" r="0.51" fill="#0071f2" opacity="0.2"/><rect x="329.23" y="209.34" width="1.19" height="56.95" transform="translate(-65.53 142.79) rotate(-22.28)" fill="#fff"/><path d="M242,332.33s-12.55,9.5-1.81,14.52c0,0-5.73,1.07-8.95,5.73,0,0-5.37,0-7.52,2.86,0,0-8.95.36-11.82,6.45l12.18,22.2s8.23.36,12.53-3.22c0,0,6.86,0,8.95-3.58,0,0,100.28-8.24,102.43-40.83,0,0,1.61-7.74-12.27-15.69,0,0-12.5-8.53-38.26-7.7,0,0-20.35-1.54-35.95,7.7A37.51,37.51,0,0,0,242,332.33Z" fill="#2f2e41"/><path d="M240.16,346.85c3.8-2.27,7.67-4.39,11.57-6.47s7.83-4.09,11.8-6,8-3.81,12.05-5.5,8.19-3.48,12.57-4.21a26.79,26.79,0,0,0-3.14,1c-1,.37-2,.83-3,1.27-2,.87-4,1.78-6,2.74l-11.91,5.74-11.91,5.77C248.16,343.1,244.18,345,240.16,346.85Z" fill="#231f20" opacity="0.3"/><path d="M178.49,399.29A8.25,8.25,0,0,1,174,391a5.48,5.48,0,0,1,2-3.65l24.25-19.87s7.73-9.55,11.63-5.55l12.18,22.2a96.44,96.44,0,0,0-28.78,21.57s-7.46,13.36-11.19,6.21c0,0-.83.56-.14-4.63a.66.66,0,0,0-.71-.75c-1.35.14-3.87-.45-4.4-6.66A.71.71,0,0,0,178.49,399.29Z" fill="#f9b499"/><ellipse cx="566.41" cy="187.53" rx="38.02" ry="26.22" transform="translate(65.79 512.14) rotate(-51.28)" fill="#f9b499"/><path d="M549.15,167.52s6.3-37.3,18.36-16.1c0,0,.66,2.93,4.9.32,0,0,16.39-11.56,18.7,4.81a3.57,3.57,0,0,0,3.41,3c5.56.28,15.88,2.51,9.52,16,0,0,18.81,9.56-12.94,28.56l-8.54-8.29S588,183,580.39,179.5a5.67,5.67,0,0,1-4-5.08,7.24,7.24,0,0,0-1.58-4,6.07,6.07,0,0,0-5.84-2.09s-5.47-.21-5.69-4.37a3.83,3.83,0,0,0-1.24-2.77c-1.34-1.13-3.63-2-6.59.77Z" fill="#2f2e41"/><ellipse cx="584.84" cy="201.95" rx="10.37" ry="6.11" transform="translate(12.53 437.07) rotate(-41.38)" fill="#f9b499"/><path d="M502.46,357.16c20.19,20.2,12.49,60.26,12.49,60.26-9.29,4.17-45.19,1.28-45.19,1.28-.64-13.14-8-40.07-8-40.07-1.29,17.31-5.45,40.07-5.45,40.07-4-.24-7.89-.63-11.65-1.13a200.5,200.5,0,0,1-38-8.81L408.53,386c2.66-34.35,11.87-47.12,11.87-47.12,16-25,47.44-4.81,47.44-4.81,5.44-7.69,16.66-8,16.66-8,33.34-4.49,51.93,21.8,51.93,21.8Z" fill="#2f2e41"/><path d="M456.3,418.7s3.52-21.15,5.45-40.06c0,0-11.54-23.72,3.84-42.31,0,0-16.65,6.49-14.48,27.53,0,0,.64,43.73-1.27,54.31Z" opacity="0.2"/><path d="M495,352.39a12.16,12.16,0,0,1,5.67,2.57,24.19,24.19,0,0,1,4.48,4.39c.68.8,1.25,1.68,1.86,2.53s1.1,1.77,1.61,2.67,1,1.85,1.39,2.79.79,1.92,1.14,2.9L507.8,365c-1.16-1.68-2.3-3.37-3.6-4.93a34.66,34.66,0,0,0-4.14-4.42,22.61,22.61,0,0,0-2.39-1.87A10.88,10.88,0,0,0,495,352.39Z" fill="#2f2e41"/><path d="M495,352.39a12.16,12.16,0,0,1,5.67,2.57,24.19,24.19,0,0,1,4.48,4.39c.68.8,1.25,1.68,1.86,2.53s1.1,1.77,1.61,2.67,1,1.85,1.39,2.79.79,1.92,1.14,2.9L507.8,365c-1.16-1.68-2.3-3.37-3.6-4.93a34.66,34.66,0,0,0-4.14-4.42,22.61,22.61,0,0,0-2.39-1.87A10.88,10.88,0,0,0,495,352.39Z" opacity="0.2"/><path d="M433.39,466.75c-1.17.27-2.32.61-3.45,1a22.23,22.23,0,0,0-3.29,1.39,7.29,7.29,0,0,0-2.65,2.14,2.23,2.23,0,0,0-.37,1.47,3.26,3.26,0,0,0,.64,1.44l-.06-.07a7.57,7.57,0,0,0,1.44.79,14.62,14.62,0,0,0,1.61.57,26.09,26.09,0,0,0,3.38.73h-.07a2.92,2.92,0,0,1,1.6.6,3.26,3.26,0,0,1,1,1.29,5.1,5.1,0,0,1,.42,1.5,10.75,10.75,0,0,1,.06,1.5v0a2,2,0,0,0,.49,1.36,3,3,0,0,0,1.39.82,10.22,10.22,0,0,0,3.64.22l-.29.11a3,3,0,0,1,1.21-.48,1.72,1.72,0,0,1,1.4.44,2.42,2.42,0,0,1,.65,1.14,6.4,6.4,0,0,1,.19,1.12v.1l-.05.17a.9.9,0,0,0,.38,1.05,3.93,3.93,0,0,0,1.55.6,12.47,12.47,0,0,0,1.85.17h1a1.3,1.3,0,0,1,.71.26,1,1,0,0,1,.4.84V489a1.58,1.58,0,0,0,.61.82,2.84,2.84,0,0,0,1.15.43,7.69,7.69,0,0,0,2.73-.14h.05a2.61,2.61,0,0,1,1.06.16,1.44,1.44,0,0,1,.5.34,1.76,1.76,0,0,1,.27.47,2.56,2.56,0,0,0,1.11,1.05,4.64,4.64,0,0,0,3.25.05,13.92,13.92,0,0,0,3.18-1.43c1-.61,2-1.29,2.95-2l-1.36,1.15c-.46.38-1,.7-1.44,1.06a14,14,0,0,1-3.18,1.68,5,5,0,0,1-3.69.08,3.13,3.13,0,0,1-1.48-1.31c-.11-.2-.12-.25-.17-.29a.48.48,0,0,0-.23-.14,1.8,1.8,0,0,0-.7-.07h.06a8.57,8.57,0,0,1-3.05.26,3.48,3.48,0,0,1-1.56-.54,2.37,2.37,0,0,1-1.07-1.47V489s0,0,0,0a.53.53,0,0,0-.19,0h-.93a12.59,12.59,0,0,1-2-.16,4.88,4.88,0,0,1-2-.79,2,2,0,0,1-.74-2.36l0,.27a5.87,5.87,0,0,0-.16-.89,1.44,1.44,0,0,0-.34-.62.58.58,0,0,0-.48-.13,1.88,1.88,0,0,0-.67.28l-.14.1h-.15a10.42,10.42,0,0,1-4.1-.28,4.14,4.14,0,0,1-1.9-1.19,3.08,3.08,0,0,1-.72-2.25v0a8,8,0,0,0,0-1.3,4.08,4.08,0,0,0-.31-1.19,2.29,2.29,0,0,0-.68-.9,1.92,1.92,0,0,0-1-.4h-.07a20.48,20.48,0,0,1-3.52-.84,15.22,15.22,0,0,1-1.69-.67,8.64,8.64,0,0,1-1.62-1l0,0,0,0a4,4,0,0,1-.72-1.85,2.94,2.94,0,0,1,.56-1.92,7.34,7.34,0,0,1,3-2.22A26.58,26.58,0,0,1,433.39,466.75Z" fill="#f7a48b"/><polygon points="542.38 214.11 528.97 217.64 520.66 228.67 520.27 227.22 528.27 216.59 542.07 212.96 542.38 214.11" fill="#fff"/><path d="M317.1,231.69l14.17,31.63a2.62,2.62,0,0,0,2.41,1.56c3.12,0,9.82-.57,14.59-4.28a2.65,2.65,0,0,0,1-2.45l-3.74-26.8a1.18,1.18,0,0,0-1.17-1l-26.59.32A.73.73,0,0,0,317.1,231.69Z" fill="#0071f2" opacity="0.57"/><path d="M354.28,250.63c3.45.69,2.75,2.9,1.9,3.79a3.86,3.86,0,0,1-2.34,1.08c-6.46.71-6.56-1-6.56-1-.9-2.15,2-2.83,2-2.83,2-2-1.24-2.25-1.24-2.25-7.22,1.69-5.76-2.38-5.76-2.38-3.27.91-4.4-.56-4.4-.56-2.37-3.47,4.83-5.68,7.69-6.4a1.28,1.28,0,0,0,.95-1.43v-.11a1.33,1.33,0,0,0-1.2-1.1,3.76,3.76,0,0,1-2.35-1.12c-2.71-3,3.05-4.07,3.05-4.07s8.36-2.37,8.47,1c0,0,.81,2.22-2.56,3a.17.17,0,0,0,0,.32c1.19.5,3.68,2,1.9,5.33a1.06,1.06,0,0,0,0,1.09c.73,1.17,2.14,4,.21,6C354.06,249.05,353.15,250.4,354.28,250.63Z" fill="#f9b499"/><path d="M319,241.31a8.85,8.85,0,0,0-1.31,1.14,2.57,2.57,0,0,0,2.65,4.2,6.92,6.92,0,0,0,2-1.13,2.65,2.65,0,0,0,.65-3.31h0A2.69,2.69,0,0,0,319,241.31Z" fill="#f9b499"/></svg>