<svg xmlns="http://www.w3.org/2000/svg" viewBox="0 0 500 500"><g id="freepik--background-complete--inject-118"><rect y="382.4" width="500" height="0.25" style="fill:#ebebeb"></rect><path d="M237,337.8H43.91a5.71,5.71,0,0,1-5.7-5.71V60.66A5.71,5.71,0,0,1,43.91,55H237a5.71,5.71,0,0,1,5.71,5.71V332.09A5.71,5.71,0,0,1,237,337.8ZM43.91,55.2a5.46,5.46,0,0,0-5.45,5.46V332.09a5.46,5.46,0,0,0,5.45,5.46H237a5.47,5.47,0,0,0,5.46-5.46V60.66A5.47,5.47,0,0,0,237,55.2Z" style="fill:#ebebeb"></path><path d="M453.31,337.8H260.21a5.72,5.72,0,0,1-5.71-5.71V60.66A5.72,5.72,0,0,1,260.21,55h193.1A5.71,5.71,0,0,1,459,60.66V332.09A5.71,5.71,0,0,1,453.31,337.8ZM260.21,55.2a5.47,5.47,0,0,0-5.46,5.46V332.09a5.47,5.47,0,0,0,5.46,5.46h193.1a5.47,5.47,0,0,0,5.46-5.46V60.66a5.47,5.47,0,0,0-5.46-5.46Z" style="fill:#ebebeb"></path><path d="M395,294.67c-21-45.67-96.16-30.43-140.25-82.05S170,87.68,123.33,102.91,64.67,83.67,49.67,91s1.47,22.78,24,25.57c33.08,4.1,64.57,18.12,71,50.65,7.33,37.11-29.89,29.39-44,18.78-16.34-12.27-33.34,18.67-.34,24s91.23-11.28,129.57,25.4c24.21,23.16,48.66,29.23,80.66,39.53s-37.12,52.76-51.34,76.53-2.55,30.94-2.55,30.94h79.25C364.92,377.73,416,340.33,395,294.67Z" style="fill:#f5f5f5"></path><path d="M98.51,168.32c-8.51-3.07-19.92-18.06-6.79-19.53S114.28,174,98.51,168.32Z" style="fill:#f5f5f5"></path><path d="M379.44,232.87c6.1-8.2,33.64-18.16,35.3-4.92S368.15,248.06,379.44,232.87Z" style="fill:#f5f5f5"></path><path d="M156.88,285.22c-6.1,3.45-43.85-26.15-29.8-37.12S160.48,283.19,156.88,285.22Z" style="fill:#f5f5f5"></path><path d="M334.38,100c-4.29-7.47-2.75-32.1,8-28.94S342.33,113.82,334.38,100Z" style="fill:#f5f5f5"></path><path d="M279.47,214.58c-30.69-42.25,11.93-78.77,62.06-92s37.19-29.37,27.92-41.16,6-26,25.32-14.13,14.68,43-14.18,63.28-19.35,30.79-3.69,64.81C394.78,234.22,314.59,262.93,279.47,214.58Z" style="fill:#f5f5f5"></path><path d="M196.82,301.17c-19.45,16.33-48.56,1.15-77.62-17.5-32.75-21-43.09-46.27-58.89-39.61C32,256,142.74,306.33,117.13,317S88.34,300.17,76,287.33s-35.15-.66-3.48,33.59S95.07,382.4,95.07,382.4H241C246.73,369.41,216.26,284.83,196.82,301.17Z" style="fill:#f5f5f5"></path></g><g id="freepik--Shadow--inject-118"><ellipse id="freepik--path--inject-118" cx="250" cy="416.24" rx="193.89" ry="11.32" style="fill:#f5f5f5"></ellipse></g><g id="freepik--splash-1--inject-118"><path d="M137.3,337.21a3.56,3.56,0,0,1,3.8-3.07c8.56-.12,16.57,5.92,24,12.41,1.65,1.43,3.44,2.92,5.29,1.41a3.73,3.73,0,0,0,1.2-1.82,6.72,6.72,0,0,0,0-3.56,7.63,7.63,0,0,0-1.35-2.64c-3.23-4.25-7.16-6.3-10.35-10.69a38.71,38.71,0,0,1-4.41-8.09c-1-2.53-3-6.6-2.2-10,.89-4.09,3.94-3.73,5.79-3.18,5.85,1.75,11.31,5.92,16.27,11.11,5.29,5.52,10.08,12.17,14.85,18.79,1.8,2.5,3.7,5.09,6,6s5.21-.57,6.18-4.19-.17-7.78-.41-11.38a52.62,52.62,0,0,1,.62-12.86,17.48,17.48,0,0,1,2.23-6.35c2.58-3.79,6.4-2.46,8.9.4a26.39,26.39,0,0,1,4.36,8c2.72,7.26,4.31,16.08,5,24.86.38,5.24,1.18,10.71,3.34,14.79,3.49,6.58,10,6.05,15.05,2.6,8.79-6,15.57-19.56,17.38-34.72.59-4.94.74-10.27,2.54-14.42,1.57-3.58,5.6-6,7.57-2.14a10.9,10.9,0,0,1,.64,6.1,42.91,42.91,0,0,1-1.49,6c-1,3.4-2,9.78.7,11.76a3.23,3.23,0,0,0,2.71.3c8.84-1.83,17.06-10.16,22.46-21.77a68.53,68.53,0,0,0,4.46-13.61c.65-2.85.92-5.93,1.64-8.77a16.16,16.16,0,0,1,2.74-6.19c3.44-4.12,11.38-2.18,11.83,6.65C314.89,294,313.53,299,313,304c-.31,3.13,1.62,3.1,3.06,3,6.9-.7,13-7.66,18.41-14.9,6.43-8.61,13.55-19.79,22.33-20.11,2-.08,5.33.18,6.53,3.27a10.29,10.29,0,0,1,0,5.8c-1.78,7.38-7,11.2-11,14.84a187,187,0,0,0-29.53,35.55c-1.27,2-2.58,5.29-1.37,7.26a2.2,2.2,0,0,0,2.25.95c4.13-.31,8-3.6,11.77-6.32s8.05-5.1,12-3a10.73,10.73,0,0,1,4.91,6.65,15.69,15.69,0,0,1,.33,7.44c-1.45,6.79-7.72,9.85-11.17,13.19a115.56,115.56,0,0,0-13,14.89c-3.6,4.93-7,10.33-10.6,15.18-13,17.32-31,19.89-47,21.9-17.41,2.18-34.86,1-52.17-1.28-12.59-1.68-25-5.27-37.29-9.52-4.22-1.53-8.41-3.2-12.55-5.18-4.45-2.12-11-3.43-12.71-11.77-.36-1.8.06-3.26,1.25-3.94,3.69-2.09,8.95.71,12.42,2.56,4.79,2.56,9.33,6.21,14.25,8.19a6.57,6.57,0,0,0,5.12.26,3.82,3.82,0,0,0,1.89-1.72,4.64,4.64,0,0,0,.36-3.3,4,4,0,0,0-1-1.57A95.32,95.32,0,0,0,159.49,361c-3.75-1.61-7.58-2.93-11.19-5.21a25.17,25.17,0,0,1-7.4-7C139.15,346.25,136.45,341.5,137.3,337.21Z" style="fill:#407BFF;opacity:0.1"></path><path d="M328.57,263.7a4.43,4.43,0,0,1-7.52-4C324.5,243,332,230.78,340.92,237.09,347.58,241.8,337.14,254.8,328.57,263.7Z" style="fill:#407BFF;opacity:0.1"></path><path d="M163.79,253.91c-9.23-7.16-15.68-17-9.1-19.51C160.91,232,163.79,253.91,163.79,253.91Z" style="fill:#407BFF;opacity:0.1"></path></g><g id="freepik--bottle-of-water--inject-118"><path d="M304.37,271.52a18.87,18.87,0,0,0,9.69-15l6.76-82.35a30.46,30.46,0,0,0-8.09-23.3L291.9,128.56a12.13,12.13,0,0,1-3.21-9.24l1-12.06-53.91-4.42-1,12a12.1,12.1,0,0,1-4.67,8.6l-24.2,18.63a30.46,30.46,0,0,0-11.78,21.66l-6.77,82.35a18.87,18.87,0,0,0,7.11,16.36,18.84,18.84,0,0,0-9.68,15l-8.63,105a18.88,18.88,0,0,0,17.28,20.37l89,7.32a18.88,18.88,0,0,0,20.37-17.28l8.63-105A18.87,18.87,0,0,0,304.37,271.52Z" style="fill:#407BFF;opacity:0.30000000000000004"></path><rect x="257.68" y="82.66" width="9.33" height="54.08" transform="translate(131.53 362.19) rotate(-85.3)" style="fill:#407BFF;opacity:0.30000000000000004"></rect><path d="M312.23,153,291.4,130.69s-13.43.59-3,17.05C297.29,161.67,312.78,159.5,312.23,153Z" style="fill:#fff;opacity:0.30000000000000004"></path><path d="M176.17,382.45a18.88,18.88,0,0,0,17.28,20.37l89,7.32a18.89,18.89,0,0,0,20.37-17.28Z" style="fill:#407BFF;opacity:0.2"></path><path d="M308.34,155a24.52,24.52,0,0,1,6.5,18.72l-6.76,82.35a12.89,12.89,0,0,1-6.62,10.22l-7.87,4.36,7.05,5.59a12.89,12.89,0,0,1,4.86,11.17l-8.63,105A12.9,12.9,0,0,1,283,404.16l-89-7.32a12.91,12.91,0,0,1-11.79-13.9l8.63-105a12.86,12.86,0,0,1,6.61-10.22l7.87-4.37-7-5.58a12.89,12.89,0,0,1-4.86-11.17l6.77-82.35a24.51,24.51,0,0,1,9.47-17.4c8-5.17,29,7.7,53.59,9.72S303.2,152.36,308.34,155Z" style="fill:#407BFF;opacity:0.30000000000000004"></path><path d="M263.18,156.6c-24.58-2-45.6-14.91-53.6-9.73,14,7.7,30,12.46,53.21,14.37S308.34,155,308.34,155C303.2,152.36,287.76,158.62,263.18,156.6Z" style="fill:#407BFF;opacity:0.2"></path><path d="M187.37,246.13a18.87,18.87,0,0,0,7.11,16.36l109.89,9a18.87,18.87,0,0,0,9.69-15Z" style="fill:#407BFF;opacity:0.2"></path><path d="M297.4,105.13l-1-.08.65-7.93A6.6,6.6,0,0,0,291,90l-8.62-.71.08-1,8.62.7a7.61,7.61,0,0,1,6.94,8.19Z" style="fill:#407BFF"></path><path d="M294.68,115.1l-.69-.72a6.6,6.6,0,0,0,2-4.19l1,.09A7.59,7.59,0,0,1,294.68,115.1Z" style="fill:#407BFF"></path><rect x="232.02" y="90.26" width="62.11" height="21.3" rx="4.09" transform="translate(9.15 -21.21) rotate(4.7)" style="fill:#407BFF"></rect><path d="M238.06,107.31h0a.5.5,0,0,1-.46-.54L238.86,91a.51.51,0,0,1,.54-.46.5.5,0,0,1,.46.54l-1.3,15.81A.49.49,0,0,1,238.06,107.31Z" style="fill:#fff;opacity:0.2"></path><path d="M247.81,108.11h0a.5.5,0,0,1-.46-.54l1.3-15.81a.51.51,0,0,1,.54-.46.5.5,0,0,1,.45.54l-1.29,15.81A.5.5,0,0,1,247.81,108.11Z" style="fill:#fff;opacity:0.2"></path><path d="M257.55,108.91h0a.5.5,0,0,1-.46-.54l1.3-15.81a.52.52,0,0,1,.54-.46.51.51,0,0,1,.46.54l-1.3,15.82A.49.49,0,0,1,257.55,108.91Z" style="fill:#fff;opacity:0.2"></path><path d="M267.3,109.72h0a.5.5,0,0,1-.46-.54l1.3-15.81a.52.52,0,0,1,.54-.46.5.5,0,0,1,.45.54l-1.3,15.82A.5.5,0,0,1,267.3,109.72Z" style="fill:#fff;opacity:0.2"></path><path d="M277,110.52h0a.5.5,0,0,1-.46-.53l1.3-15.82a.54.54,0,0,1,.54-.46.51.51,0,0,1,.46.54l-1.3,15.82A.5.5,0,0,1,277,110.52Z" style="fill:#fff;opacity:0.2"></path><path d="M286.79,111.32h0a.51.51,0,0,1-.46-.54L287.59,95a.49.49,0,0,1,.54-.45.49.49,0,0,1,.45.53l-1.29,15.82A.52.52,0,0,1,286.79,111.32Z" style="fill:#fff;opacity:0.2"></path><path d="M204,218.63c-1.52-8.41-13.77-7.82-14.47.7l-2.2,26.8a18.87,18.87,0,0,0,7.11,16.36,18.84,18.84,0,0,0-9.68,15l-8.63,105a18.88,18.88,0,0,0,17.28,20.37l23,1.89a16.59,16.59,0,0,0,17.68-19.48Z" style="fill:#407BFF;opacity:0.2"></path><circle cx="282.75" cy="355.31" r="9.78" transform="translate(-162.71 267.23) rotate(-40.3)" style="fill:#407BFF;opacity:0.30000000000000004"></circle><path d="M261.41,318.24a6.92,6.92,0,1,1-6.33-7.46A6.91,6.91,0,0,1,261.41,318.24Z" style="fill:#407BFF;opacity:0.30000000000000004"></path><path d="M232.48,234a6.93,6.93,0,1,1,6.59-7.25A6.94,6.94,0,0,1,232.48,234Z" style="fill:#407BFF;opacity:0.30000000000000004"></path><path d="M251.35,192.59a4.9,4.9,0,1,1,4.65-5.13A4.91,4.91,0,0,1,251.35,192.59Z" style="fill:#407BFF;opacity:0.30000000000000004"></path><path d="M281.71,288.33a2.86,2.86,0,1,1-2.62-3.09A2.87,2.87,0,0,1,281.71,288.33Z" style="fill:#407BFF;opacity:0.30000000000000004"></path><path d="M229.91,366.57l-.48,0a5.81,5.81,0,0,1-4-2,5.74,5.74,0,0,1-1.35-4.22l.37,0-.37,0a5.79,5.79,0,1,1,5.78,6.27Zm0-10.84a5,5,0,0,0-3.84,8.31,5,5,0,0,0,3.43,1.76,5,5,0,1,0,.83-10.05Z" style="fill:#fff;opacity:0.7000000000000001"></path><path d="M291.76,249.55l-.35,0a4.21,4.21,0,0,1-3.85-4.53h0a4.21,4.21,0,1,1,4.2,4.55Zm-3.45-4.49a3.46,3.46,0,1,0,6.08-1.95A3.39,3.39,0,0,0,292,241.9a3.45,3.45,0,0,0-3.73,3.16Z" style="fill:#fff;opacity:0.7000000000000001"></path><path d="M227.15,160.89H227a2,2,0,0,1-1.8-2.11h0a2,2,0,1,1,2,2.12Zm-1.21-2.06a1.21,1.21,0,1,0,2.41.2,1.21,1.21,0,1,0-2.41-.2Z" style="fill:#fff;opacity:0.7000000000000001"></path><path d="M271.37,212.68l-.42,0a5,5,0,0,1-4.59-5.41h0a5,5,0,1,1,5,5.43Zm0-9.29a4.22,4.22,0,0,0-2.75,1,4.28,4.28,0,0,0-1.5,2.91h0a4.27,4.27,0,0,0,3.91,4.6,4.2,4.2,0,0,0,3.11-1,4.26,4.26,0,0,0,1.5-2.9,4.31,4.31,0,0,0-1-3.12,4.23,4.23,0,0,0-2.91-1.49Zm-4.62,3.89h0Z" style="fill:#fff;opacity:0.7000000000000001"></path><path d="M312.39,256.4l6.46-78.53a3.83,3.83,0,0,0-3.51-4.13h0a3.83,3.83,0,0,0-4.13,3.51l-6.46,78.53a15.86,15.86,0,0,1-8.15,12.6l-3.93,2.18,3.53,2.79a15.9,15.9,0,0,1,6,13.76l-8.63,105c-.52,6.3-4.48,9.37-10.05,11.82a1.75,1.75,0,0,0,.56,3.35h0a15.89,15.89,0,0,0,17.13-14.54l8.63-105a15.86,15.86,0,0,0-6-13.76l-3.53-2.79,3.93-2.19A15.83,15.83,0,0,0,312.39,256.4Z" style="fill:#fff;opacity:0.30000000000000004"></path></g><g id="freepik--splash-2--inject-118"><path d="M416.19,378.44c-1.08-4.9-14.56-2-17.35-1.55A80.78,80.78,0,0,0,383,381.47c-5.63,2.2-12.17,5.45-18,2.1-3.37-1.95,8.33-5.78,9.39-6.17a85.48,85.48,0,0,0,14.34-6.57c1.85-1.1,5.43-3.73,3.89-6.41-1.28-2.21-5.87-2-8.66-1.66A103.08,103.08,0,0,0,359.27,369a241.72,241.72,0,0,0-22.66,10.38,29.46,29.46,0,0,1-9.19,3.3c-3.52.5-7.83-.24-9.22-2.2s.4-4.22.81-6.18a10.55,10.55,0,0,0-.69-7,7.44,7.44,0,0,0-3.25-3.42c-3.81-2-9.57-1.26-13.4.32a22,22,0,0,0-6.69,4.42,27,27,0,0,0-7.88,13.55,12.6,12.6,0,0,1-5.3,8.07c-5.36,3.61-15.18,3.4-22.69,1.59C246,388.66,236,381.39,233.59,373.18c-1.17-3.91-1.74-7.95-7-9.52-3.4-1-10.52-.31-9,4a13.6,13.6,0,0,0,2.14,3.25c1.39,1.83,2.87,5.28-1.26,6.39a12.79,12.79,0,0,1-4.07.19c-13.28-.89-25.5-5.32-33.42-11.56a26.92,26.92,0,0,1-6.46-7.33c-.94-1.55-1.28-3.21-2.31-4.75a9.1,9.1,0,0,0-4-3.32c-5.1-2.2-17.08-1.06-17.92,3.75-.45,2.6,1.17,5.42,2,7.89a1.46,1.46,0,0,1,.1,1c-.24.63-1.19.81-2,.86-10.71.71-21.1-3.45-30.09-7.79-9.52-4.6-20-10.59-33.23-10.66a25.66,25.66,0,0,0-8.11.94,4.51,4.51,0,0,0-1.82.94,2.33,2.33,0,0,0-.44,2.58,5.92,5.92,0,0,0,1.86,2.21c4,3.26,9.6,4.58,14.71,6.26a252.08,252.08,0,0,1,43.78,19c1.41.79,3.91,2.62,1.93,4s-6,.48-8.37.09c-4.3-.7-8.43-1.81-12.62-2.87-5.54-1.39-12-2.67-18-1.51-3.17.61-6,1.91-7.49,3.67a3.47,3.47,0,0,0-.64,4c2.06,3.67,11.45,5.26,16.58,7a165.51,165.51,0,0,1,19.23,7.94c5.33,2.63,10.28,5.52,15.68,8.11,19.29,9.26,46.23,10.44,70.32,11.34,26.15,1,52.42.15,78.5-1.3,19-1.06,37.65-3.15,56.27-5.6,5.35-.71,10.67-1.57,16-2.3a100.23,100.23,0,0,0,16-3.17,13.52,13.52,0,0,0,5.15-2.58c1.43-1.32,1.88-3.06-.68-3.57-5.36-1.07-10.88.15-16.12,1.11q-8.82,1.6-17.48,3.72a66.44,66.44,0,0,1-8,1.63,19.92,19.92,0,0,1-8.11-.52c-.86-.27-1.8-.75-1.85-1.51s.67-1.24,1.41-1.53c10.79-4.27,22.25-7,33.79-9.5,7.83-1.7,15.8-2.74,23.69-4.07,7.19-1.2,14.77-1.49,21-6a7.21,7.21,0,0,0,2.75-3.31A4.07,4.07,0,0,0,416.19,378.44Z" style="fill:#407BFF;opacity:0.30000000000000004"></path><path d="M106.75,338c-2.93-8.34-13.37-23.09-15.57-14.37C90,328.48,106.75,338,106.75,338Z" style="fill:#407BFF;opacity:0.30000000000000004"></path><path d="M368.93,354.36c5.58-5.09,12.54-8.13,13.44-3.65C383.21,354.94,368.93,354.36,368.93,354.36Z" style="fill:#407BFF;opacity:0.30000000000000004"></path><path d="M140,313.87c-3.82-2-6.8-5.21-4.56-6.55S140,313.87,140,313.87Z" style="fill:#407BFF;opacity:0.30000000000000004"></path></g></svg>